# xmcd
#
# Track frame offsets: 
#        150
#        14845
#        39435
#        66125
#        92890
#        115080
#        130995
#        153385
#        176250
#        197375
#        224032
#        248647
#        269987
#        285122
#
# Disc length: 4161 seconds
#
# Revision: 1
# Processed by: cddbd v1.5.2PL0 Copyright (c) Steve Scherf et al.
# Submitted via: ExactAudioCopy v1.0b1
#
DISCID=ca103f0e
DTITLE=Mike Carr and Cargo - For Export Only
DYEAR=1990
DGENRE=Jazz
TTITLE0=Tender Touch
TTITLE1=Wihtout You
TTITLE2=Sunshine
TTITLE3=Holding On For Love
TTITLE4=Lovely Summers Day
TTITLE5=Don't Stop Your Love
TTITLE6=Cover Me
TTITLE7=You Make My World
TTITLE8=Love You So
TTITLE9=Sunshine
TTITLE10=Just Jammin'
TTITLE11=Summer Dance
TTITLE12=Do It
TTITLE13=Jazz Rap
EXTD=YEAR: 1990
EXTT0=
EXTT1=
EXTT2=
EXTT3=
EXTT4=
EXTT5=
EXTT6=
EXTT7=
EXTT8=
EXTT9=
EXTT10=
EXTT11=
EXTT12=
EXTT13=
PLAYORDER=
